# xmcd
# Copyright (C) 1995-1998 Ti Kan
#
# Track frame offsets:
#       150
#       12777
#       25827
#       40237
#       49667
#       60217
#       74430
#       91670
#       110577
#       127917
#       154772
#       172405
#       188475
#       206547
#       223522
#       244090
#
# Disc length: 3498 seconds
#
# Revision: 0
# Processed by: cddbd v1.5.2PL0 Copyright (c) Steve Scherf et al.
# Submitted via: CD-Transfer v1.0
#
DISCID=d00da810
DTITLE=Specials, The - 
DYEAR=1900
DGENRE=
TTITLE0=Gangsters
TTITLE1=Rudy, A Message To You
TTITLE2=Nite Club
TTITLE3=Too Much, Too Young
TTITLE4=Guns Of Navarone
TTITLE5=Rat Race
TTITLE6=Stereotype
TTITLE7=International Jet Set
TTITLE8=Do Nothing
TTITLE9=Ghost Town
TTITLE10=Why?
TTITLE11=Frigay Night, Saturday Morning
TTITLE12=War Crimes
TTITLE13=Racist Friend
TTITLE14=Nelson Mandela
TTITLE15=(What I Like Most About You Is Your) Girlfriend
EXTD=
EXTT0=
EXTT1=
EXTT2=
EXTT3=
EXTT4=
EXTT5=
EXTT6=
EXTT7=
EXTT8=
EXTT9=
EXTT10=
EXTT11=
EXTT12=
EXTT13=
EXTT14=
EXTT15=
PLAYORDER=
